<svg width="64" height="64" viewBox="0 0 64 64" fill="none" xmlns="http://www.w3.org/2000/svg">
<g style="mix-blend-mode:multiply">
<rect width="64" height="64" fill="white"/>
<circle cx="32" cy="32" r="31.5" fill="#232323" stroke="black"/>
<path d="M51.0625 37.1719C50.6406 40.7812 49.3047 43.5703 47.0547 45.5391C44.8203 47.4922 41.8438 48.4688 38.125 48.4688C34.0938 48.4688 30.8594 47.0234 28.4219 44.1328C26 41.2422 24.7891 37.375 24.7891 32.5312V29.25C24.7891 26.0781 25.3516 23.2891 26.4766 20.8828C27.6172 18.4766 29.2266 16.6328 31.3047 15.3516C33.3828 14.0547 35.7891 13.4062 38.5234 13.4062C42.1484 13.4062 45.0547 14.4219 47.2422 16.4531C49.4297 18.4688 50.7031 21.2656 51.0625 24.8438H46.5391C46.1484 22.125 45.2969 20.1562 43.9844 18.9375C42.6875 17.7188 40.8672 17.1094 38.5234 17.1094C35.6484 17.1094 33.3906 18.1719 31.75 20.2969C30.125 22.4219 29.3125 25.4453 29.3125 29.3672V32.6719C29.3125 36.375 30.0859 39.3203 31.6328 41.5078C33.1797 43.6953 35.3438 44.7891 38.125 44.7891C40.625 44.7891 42.5391 44.2266 43.8672 43.1016C45.2109 41.9609 46.1016 39.9844 46.5391 37.1719H51.0625Z" fill="#898989"/>
<path d="M13.9609 48V13.875H23.5938C26.5625 13.875 29.1875 14.5312 31.4688 15.8438C33.75 17.1562 35.5078 19.0234 36.7422 21.4453C37.9922 23.8672 38.625 26.6484 38.6406 29.7891V31.9688C38.6406 35.1875 38.0156 38.0078 36.7656 40.4297C35.5312 42.8516 33.7578 44.7109 31.4453 46.0078C29.1484 47.3047 26.4688 47.9688 23.4062 48H13.9609ZM18.4609 17.5781V44.3203H23.1953C26.6641 44.3203 29.3594 43.2422 31.2812 41.0859C33.2188 38.9297 34.1875 35.8594 34.1875 31.875V29.8828C34.1875 26.0078 33.2734 23 31.4453 20.8594C29.6328 18.7031 27.0547 17.6094 23.7109 17.5781H18.4609Z" fill="white"/>
</g>
</svg>
